# xmcd
#
# Track frame offsets:
#	150
#	13452
#	31859
#	52753
#	70230
#	87694
#	104566
#	123135
#	142903
#	158485
#	175222
#	188604
#	205823
#
# Disc length: 2928 seconds
#
# Revision: 0
# Processed by: cddbd v1.5.2PL0 Copyright (c) Steve Scherf et al.
# Submitted via: audiograbber 1.83.01
#
DISCID=a80b6e0d
DTITLE=Michael Waugh - The Asphalt and The Oval
DYEAR=2015
DGENRE=Country
TTITLE0=Little C Word
TTITLE1=Footy Trip
TTITLE2=They Don't Let The Girls In The Game
TTITLE3=Willy's Chickens
TTITLE4=Baling Twine
TTITLE5=For A Moment
TTITLE6=Shit Year
TTITLE7=Bloodt Rain
TTITLE8=Tapping
TTITLE9=The Asphalt And The Oval
TTITLE10=Acid Wash
TTITLE11=Driving With The Window Down
TTITLE12=KinderGarten Fete
EXTD=
EXTT0=
EXTT1=
EXTT2=
EXTT3=
EXTT4=
EXTT5=
EXTT6=
EXTT7=
EXTT8=
EXTT9=
EXTT10=
EXTT11=
EXTT12=
PLAYORDER=
